<svg width="50" height="51" viewBox="0 0 50 51" fill="none" xmlns="http://www.w3.org/2000/svg">
<g clip-path="url(#clip0_1870_845)">
<path fill-rule="evenodd" clip-rule="evenodd" d="M22.1382 29.9668C23.2224 27.5337 24.9292 25.4435 27.0791 23.9158C29.2291 22.3881 31.7428 21.4794 34.3561 21.2851C36.9694 21.0908 39.5857 21.6182 41.9301 22.8118C44.2745 24.0054 46.2604 25.8211 47.679 28.0681C49.0976 30.3151 49.8966 32.9104 49.992 35.5813C50.0874 38.2521 49.4756 40.8999 48.2211 43.2462C46.9665 45.5925 45.1154 47.5508 42.8623 48.9152C40.6093 50.2797 38.0375 50.9998 35.4173 51C32.6571 51.0006 29.9534 50.2021 27.6205 48.6975C25.2875 47.1928 23.4211 45.0437 22.2381 42.5H2.08398V38.2245C2.21315 35.8381 3.83815 33.8512 6.95898 32.2596C10.0757 30.6701 14.0069 29.8414 18.7507 29.7734C19.9298 29.7904 21.059 29.8541 22.1382 29.9646V29.9668ZM18.7507 8.5C21.0902 8.56588 23.0382 9.39463 24.5986 10.9863C26.159 12.5758 26.9382 14.5817 26.9382 17C26.9382 19.4183 26.159 21.4242 24.5986 23.0138C23.0382 24.6054 21.0902 25.4001 18.7507 25.4001C16.4111 25.4001 14.4632 24.6054 12.9027 23.0138C11.3423 21.4242 10.5632 19.4183 10.5632 17C10.5632 14.5817 11.3423 12.5758 12.9027 10.9863C14.4632 9.3925 16.4111 8.56375 18.7507 8.5ZM35.4173 46.75C38.18 46.75 40.8295 45.6306 42.783 43.638C44.7365 41.6454 45.834 38.9429 45.834 36.125C45.834 33.3071 44.7365 30.6046 42.783 28.612C40.8295 26.6194 38.18 25.5 35.4173 25.5C32.6546 25.5 30.0051 26.6194 28.0516 28.612C26.0981 30.6046 25.0007 33.3071 25.0007 36.125C25.0007 38.9429 26.0981 41.6454 28.0516 43.638C30.0051 45.6306 32.6546 46.75 35.4173 46.75ZM33.334 29.75H36.459V35.7425L41.5423 38.7387L39.9798 41.5013L33.334 37.5913V29.75Z" fill="#F3F2F3"/>
</g>
<defs>
<clipPath id="clip0_1870_845">
<rect width="50" height="51" fill="white"/>
</clipPath>
</defs>
</svg>
