<svg width="24" height="24" viewBox="0 0 24 24" fill="none" xmlns="http://www.w3.org/2000/svg">
<path d="M7.20947 15L2.65947 7.14C2.46327 6.80087 2.371 6.41159 2.39411 6.02048C2.41722 5.62937 2.5547 5.25366 2.78947 4.94L4.39947 2.8C4.58576 2.55161 4.82733 2.35 5.10504 2.21115C5.38275 2.07229 5.68898 2 5.99947 2H17.9995C18.31 2 18.6162 2.07229 18.8939 2.21115C19.1716 2.35 19.4132 2.55161 19.5995 2.8L21.1995 4.94C21.4358 5.25265 21.575 5.62784 21.5999 6.01897C21.6248 6.4101 21.5343 6.79992 21.3395 7.14L16.7895 15" stroke="#FCB136" stroke-width="2" stroke-linecap="round" stroke-linejoin="round"/>
<path d="M10.9991 12L5.11914 2.19995" stroke="#FCB136" stroke-width="2" stroke-linecap="round" stroke-linejoin="round"/>
<path d="M13 12L18.88 2.19995" stroke="#FCB136" stroke-width="2" stroke-linecap="round" stroke-linejoin="round"/>
<path d="M8 7H16" stroke="#FCB136" stroke-width="2" stroke-linecap="round" stroke-linejoin="round"/>
<path d="M12 22C14.7614 22 17 19.7614 17 17C17 14.2386 14.7614 12 12 12C9.23858 12 7 14.2386 7 17C7 19.7614 9.23858 22 12 22Z" stroke="#FCB136" stroke-width="2" stroke-linecap="round" stroke-linejoin="round"/>
<path d="M12 18V16H11.5" stroke="#FCB136" stroke-width="2" stroke-linecap="round" stroke-linejoin="round"/>
</svg>
