<svg width="64" height="64" viewBox="0 0 64 64" fill="none" xmlns="http://www.w3.org/2000/svg">
<mask id="mask0_312_718" style="mask-type:alpha" maskUnits="userSpaceOnUse" x="0" y="0" width="64" height="64">
<rect width="64" height="64" fill="#D9D9D9"/>
</mask>
<g mask="url(#mask0_312_718)">
<path d="M38.6009 32.0001L19.0009 12.4001C18.3343 11.7334 18.0121 10.9445 18.0343 10.0334C18.0565 9.1223 18.4009 8.33341 19.0676 7.66675C19.7343 7.00008 20.5232 6.66675 21.4343 6.66675C22.3454 6.66675 23.1343 7.00008 23.8009 7.66675L44.2676 28.2001C44.8009 28.7334 45.2009 29.3334 45.4676 30.0001C45.7343 30.6667 45.8676 31.3334 45.8676 32.0001C45.8676 32.6667 45.7343 33.3334 45.4676 34.0001C45.2009 34.6667 44.8009 35.2667 44.2676 35.8001L23.7343 56.3334C23.0676 57.0001 22.2898 57.3223 21.4009 57.3001C20.5121 57.2779 19.7343 56.9334 19.0676 56.2667C18.4009 55.6001 18.0676 54.8112 18.0676 53.9001C18.0676 52.989 18.4009 52.2001 19.0676 51.5334L38.6009 32.0001Z" fill="#3B195C"/>
</g>
</svg>
