<svg width="46" height="46" viewBox="0 0 46 46" fill="none" xmlns="http://www.w3.org/2000/svg">
<mask id="mask0_803_442" style="mask-type:alpha" maskUnits="userSpaceOnUse" x="0" y="0" width="46" height="46">
<rect width="46" height="46" fill="#D9D9D9"/>
</mask>
<g mask="url(#mask0_803_442)">
<path d="M7.66667 40.25C7.12361 40.25 6.6684 40.0663 6.30104 39.699C5.93368 39.3316 5.75 38.8764 5.75 38.3333V33.6854C5.75 33.1743 5.84583 32.6872 6.0375 32.224C6.22917 31.7608 6.50069 31.3535 6.85208 31.0021L31.05 6.85208C31.4333 6.50069 31.8566 6.22917 32.3198 6.0375C32.783 5.84583 33.2701 5.75 33.7812 5.75C34.2924 5.75 34.7875 5.84583 35.2667 6.0375C35.7458 6.22917 36.1611 6.51667 36.5125 6.9L39.1479 9.58333C39.5312 9.93472 39.8108 10.35 39.9865 10.8292C40.1622 11.3083 40.25 11.7875 40.25 12.2667C40.25 12.7778 40.1622 13.2649 39.9865 13.7281C39.8108 14.1913 39.5312 14.6146 39.1479 14.9979L14.9979 39.1479C14.6465 39.4993 14.2392 39.7708 13.776 39.9625C13.3128 40.1542 12.8257 40.25 12.3146 40.25H7.66667ZM33.7333 14.95L36.4167 12.2667L33.7333 9.58333L31.05 12.2667L33.7333 14.95Z" fill="#F3F2F3"/>
</g>
</svg>
