<svg width="22" height="22" viewBox="0 0 22 22" fill="none" xmlns="http://www.w3.org/2000/svg">
<mask id="mask0_803_435" style="mask-type:alpha" maskUnits="userSpaceOnUse" x="0" y="0" width="22" height="22">
<rect width="21.5" height="21.5" fill="#D9D9D9"/>
</mask>
<g mask="url(#mask0_803_435)">
<path d="M0.895833 16.125C0.642014 16.125 0.429253 16.0391 0.257552 15.8674C0.0858507 15.6957 0 15.483 0 15.2292V14.7141C0 14.072 0.328472 13.5495 0.985417 13.1464C1.64236 12.7432 2.50833 12.5417 3.58333 12.5417C3.77743 12.5417 3.96406 12.5454 4.14323 12.5529C4.3224 12.5603 4.4941 12.579 4.65833 12.6089C4.44931 12.9224 4.29253 13.2509 4.18802 13.5943C4.08351 13.9377 4.03125 14.296 4.03125 14.6693V16.125H0.895833ZM6.27083 16.125C6.01701 16.125 5.80425 16.0391 5.63255 15.8674C5.46085 15.6957 5.375 15.483 5.375 15.2292V14.6693C5.375 14.1915 5.50564 13.7548 5.76693 13.3591C6.02821 12.9635 6.39774 12.6163 6.87552 12.3177C7.3533 12.0191 7.92439 11.7951 8.5888 11.6458C9.25321 11.4965 9.97361 11.4219 10.75 11.4219C11.5413 11.4219 12.2692 11.4965 12.9336 11.6458C13.598 11.7951 14.1691 12.0191 14.6469 12.3177C15.1247 12.6163 15.4905 12.9635 15.7443 13.3591C15.9981 13.7548 16.125 14.1915 16.125 14.6693V15.2292C16.125 15.483 16.0391 15.6957 15.8674 15.8674C15.6957 16.0391 15.483 16.125 15.2292 16.125H6.27083ZM17.4688 16.125V14.6693C17.4688 14.2811 17.4202 13.9153 17.3232 13.5719C17.2261 13.2285 17.0806 12.9075 16.8865 12.6089C17.0507 12.579 17.2187 12.5603 17.3904 12.5529C17.5621 12.5454 17.7375 12.5417 17.9167 12.5417C18.9917 12.5417 19.8576 12.7395 20.5146 13.1352C21.1715 13.5308 21.5 14.0571 21.5 14.7141V15.2292C21.5 15.483 21.4141 15.6957 21.2424 15.8674C21.0707 16.0391 20.858 16.125 20.6042 16.125H17.4688ZM3.58333 11.6458C3.09062 11.6458 2.66884 11.4704 2.31797 11.1195C1.9671 10.7687 1.79167 10.3469 1.79167 9.85417C1.79167 9.34653 1.9671 8.92101 2.31797 8.5776C2.66884 8.2342 3.09062 8.0625 3.58333 8.0625C4.09097 8.0625 4.51649 8.2342 4.8599 8.5776C5.2033 8.92101 5.375 9.34653 5.375 9.85417C5.375 10.3469 5.2033 10.7687 4.8599 11.1195C4.51649 11.4704 4.09097 11.6458 3.58333 11.6458ZM17.9167 11.6458C17.424 11.6458 17.0022 11.4704 16.6513 11.1195C16.3004 10.7687 16.125 10.3469 16.125 9.85417C16.125 9.34653 16.3004 8.92101 16.6513 8.5776C17.0022 8.2342 17.424 8.0625 17.9167 8.0625C18.4243 8.0625 18.8498 8.2342 19.1932 8.5776C19.5366 8.92101 19.7083 9.34653 19.7083 9.85417C19.7083 10.3469 19.5366 10.7687 19.1932 11.1195C18.8498 11.4704 18.4243 11.6458 17.9167 11.6458ZM10.75 10.75C10.0035 10.75 9.36892 10.4887 8.84635 9.96615C8.32378 9.44358 8.0625 8.80903 8.0625 8.0625C8.0625 7.30104 8.32378 6.66276 8.84635 6.14766C9.36892 5.63255 10.0035 5.375 10.75 5.375C11.5115 5.375 12.1497 5.63255 12.6648 6.14766C13.1799 6.66276 13.4375 7.30104 13.4375 8.0625C13.4375 8.80903 13.1799 9.44358 12.6648 9.96615C12.1497 10.4887 11.5115 10.75 10.75 10.75Z" fill="#E7E6E8"/>
</g>
</svg>
